DataType=double
version=3
OpenSimVersion=4.5
endheader
time	ground_force_1_vx	ground_force_1_vy	ground_force_1_vz	ground_force_1_px	ground_force_1_py	ground_force_1_pz	ground_moment_1_mx	ground_moment_1_my	ground_moment_1_mz	ground_force_2_vx	ground_force_2_vy	ground_force_2_vz	ground_force_2_px	ground_force_2_py	ground_force_2_pz	ground_moment_2_mx	ground_moment_2_my	ground_moment_2_mz
2	-39.55190127	622.137595	48.02234916	0.8308407482048986	0	0.4026932217450678	0	3.273819355352734	0	0	0	0	0.8089	0	0.745900015	0	0	0
2.005	-37.48554071	618.4534768	47.01147431	0.8266042062382539	0	0.4030034539124427	0	3.196939314002114	0	0	0	0	0.8089	0	0.745900015	0	0	0
2.01	-35.2087058	615.7489495	45.8818354	0.8220325091201133	0	0.4033713890522849	0	3.090040398797437	0	0	0	0	0.8089	0	0.745900015	0	0	0
2.015	-32.7022285	613.903989	44.6789399	0.8171682081865583	0	0.4037910412265118	0	2.960337111519424	0	0	0	0	0.8089	0	0.745900015	0	0	0
2.02	-30.25170357	612.8415982	43.51960041	0.8121801406348937	0	0.4042332314701035	0	2.829544642988746	0	0	0	0	0.8089	0	0.745900015	0	0	0
2.025	-27.92237168	612.4367136	42.46482222	0.8072115123085334	0	0.4046905353285832	0	2.720679507949135	0	0	0	0	0.8089	0	0.745900015	0	0	0
2.03	-25.50765003	612.545038	41.43000396	0.8022083134200489	0	0.4051558511029623	0	2.611954204871526	0	0	0	0	0.8089	0	0.745900015	0	0	0
2.035	-22.9596267	613.0162617	40.35312803	0.7969820702900136	0	0.4056479057868269	0	2.476983864703473	0	0	0	0	0.8089	0	0.745900015	0	0	0
2.04	-20.43330123	613.7997121	39.27328347	0.7915590269680478	0	0.4061426061325641	0	2.339697208980147	0	0	0	0	0.8089	0	0.745900015	0	0	0
2.045	-17.97357277	614.8681682	38.32940504	0.7862875206493859	0	0.4066076499316034	0	2.221564689682817	0	0	0	0	0.8089	0	0.745900015	0	0	0
2.05	-15.52918087	616.2276035	37.61018558	0.7812930936342201	0	0.4070266849671357	0	2.111745698726929	0	0	0	0	0.8089	0	0.745900015	0	0	0
2.055	-13.08161361	617.8925733	37.02503551	0.7762983810128085	0	0.4073961421632417	0	2.025095092115038	0	0	0	0	0.8089	0	0.745900015	0	0	0
2.06	-10.56697777	619.7865578	36.43277627	0.7711343057459377	0	0.4077475572551449	0	1.966012792135016	0	0	0	0	0.8089	0	0.745900015	0	0	0
2.065	-7.904275548	621.8236596	35.77595995	0.7659769763991292	0	0.4080766350115657	0	1.909647986646715	0	0	0	0	0.8089	0	0.745900015	0	0	0
2.07	-5.181294614	623.9348502	35.18374094	0.760934640373826	0	0.4083748889105147	0	1.876599613222225	0	0	0	0	0.8089	0	0.745900015	0	0	0
2.075	-2.508027028	626.0585328	34.77130786	0.7558886515747192	0	0.408649606431927	0	1.857130828033382	0	0	0	0	0.8089	0	0.745900015	0	0	0
2.08	0.234237902	628.0732313	34.47688049	0.7507539548276407	0	0.4089402920334267	0	1.817776332264788	0	0	0	0	0.8089	0	0.745900015	0	0	0
2.085	3.182274073	629.8938193	34.1611294	0.745561340464824	0	0.4092754057380424	0	1.757803854649933	0	0	0	0	0.8089	0	0.745900015	0	0	0
2.09	6.223954983	631.5748624	33.80992321	0.740330974246094	0	0.4096322447734078	0	1.679158799450484	0	0	0	0	0.8089	0	0.745900015	0	0	0
2.095	9.238464584999999	633.1739439	33.56931778	0.735127505638506	0	0.4099948257480707	0	1.588044458141324	0	0	0	0	0.8089	0	0.745900015	0	0	0
2.1	12.31535241	634.72104	33.51762885	0.7300093884208012	0	0.4103595302963591	0	1.469756053255063	0	0	0	0	0.8089	0	0.745900015	0	0	0
2.105	15.53926577	636.2398194	33.58773218	0.7248602346303336	0	0.4107480611105332	0	1.314269683288454	0	0	0	0	0.8089	0	0.745900015	0	0	0
2.11	18.85389797	637.8578291	33.63206221	0.7195262423856523	0	0.4111499591725376	0	1.1596182543191	0	0	0	0	0.8089	0	0.745900015	0	0	0
2.115	22.22868984	639.7141076	33.60356005	0.7140521487558741	0	0.4115439861214799	0	1.031098941160492	0	0	0	0	0.8089	0	0.745900015	0	0	0
2.12	25.69053951	641.8598776	33.60905581	0.7085615779500302	0	0.4119338179241823	0	0.9005952305352656	0	0	0	0	0.8089	0	0.745900015	0	0	0
2.125	29.19723306	644.2999174	33.74438455	0.7030091253696431	0	0.4123238543896064	0	0.7683551299503888	0	0	0	0	0.8089	0	0.745900015	0	0	0
2.13	32.71320688	647.0239994	34.00654774	0.6972895087634641	0	0.4127355178673715	0	0.6334951309193682	0	0	0	0	0.8089	0	0.745900015	0	0	0
2.135	36.29397284	650.1072053	34.28886465	0.6914322551273993	0	0.4131504040232319	0	0.4779496284891089	0	0	0	0	0.8089	0	0.745900015	0	0	0
2.14	39.94148492	653.5216684	34.55691585	0.6855375803411745	0	0.4135636425199251	0	0.3334370223764349	0	0	0	0	0.8089	0	0.745900015	0	0	0
2.145	43.55567601	657.1526717	34.89562396	0.6796722035207242	0	0.4139874634659607	0	0.2007731012149474	0	0	0	0	0.8089	0	0.745900015	0	0	0
2.15	47.09636456	660.9442311	35.36766676	0.6738710975897292	0	0.41441043867964	0	0.06095437552799066	0	0	0	0	0.8089	0	0.745900015	0	0	0
2.155	50.65395162	664.8386017	35.92060858	0.6681231249423214	0	0.4148322034655928	0	-0.07989671584305302	0	0	0	0	0.8089	0	0.745900015	0	0	0
2.16	54.31128687	668.7072418	36.39619508	0.662401135714431	0	0.4152620572578017	0	-0.2229165395187334	0	0	0	0	0.8089	0	0.745900015	0	0	0
2.165	58.03397146	672.3906095	36.71325514	0.6567355906948216	0	0.4157160295722493	0	-0.3347411000038845	0	0	0	0	0.8089	0	0.745900015	0	0	0
2.17	61.75977446	675.8696723	36.90212132	0.6511937832013506	0	0.4161645422095808	0	-0.4079441497332219	0	0	0	0	0.8089	0	0.745900015	0	0	0
2.175	65.51413759	679.1236709	37.04394448	0.645749119275066	0	0.4165975902308051	0	-0.4859253198652951	0	0	0	0	0.8089	0	0.745900015	0	0	0
2.18	69.38146841	682.0065876	37.11814824	0.640304436320532	0	0.4170331273926744	0	-0.5835858412882269	0	0	0	0	0.8089	0	0.745900015	0	0	0
2.185	73.37830167	684.3638979999999	37.05050002	0.6348295530055028	0	0.4174842806025848	0	-0.6949150662940138	0	0	0	0	0.8089	0	0.745900015	0	0	0
2.19	77.43541075	686.1827868	36.85263383	0.6294939865117364	0	0.4179306276071478	0	-0.803906961784552	0	0	0	0	0.8089	0	0.745900015	0	0	0
2.195	81.46818254999999	687.4842738999999	36.59532644	0.624418124467539	0	0.4183266146817871	0	-0.8846301016904299	0	0	0	0	0.8089	0	0.745900015	0	0	0
2.2	85.47310458	688.0858526	36.39116854	0.6194111078040127	0	0.4187087489157955	0	-0.9590751755808959	0	0	0	0	0.8089	0	0.745900015	0	0	0
2.205	89.57422013999999	687.8287711	36.22007768	0.6142809922200645	0	0.4190984933774373	0	-1.045906700999502	0	0	0	0	0.8089	0	0.745900015	0	0	0
2.21	93.8246412	686.7100109	36.01038412	0.6090755445151097	0	0.4194770994645179	0	-1.106720232972173	0	0	0	0	0.8089	0	0.745900015	0	0	0
2.215	98.05451632	684.7542357	35.7531687	0.6038962556040111	0	0.4198234082026284	0	-1.120758483352224	0	0	0	0	0.8089	0	0.745900015	0	0	0
2.22	102.1250648	681.8583640000001	35.49574011	0.5986676823352325	0	0.4201463086031778	0	-1.090951650171592	0	0	0	0	0.8089	0	0.745900015	0	0	0
2.225	106.1782463	677.8210522000001	35.29212935	0.5932253012043219	0	0.4204881061385892	0	-1.069929454145178	0	0	0	0	0.8089	0	0.745900015	0	0	0
2.23	110.3619248	672.5697668	35.10190973	0.5875414326059751	0	0.4208425837005151	0	-1.101595439265868	0	0	0	0	0.8089	0	0.745900015	0	0	0
2.235	114.5319717	666.070343	34.83059831	0.5817973440564287	0	0.4211829945377873	0	-1.125120003344149	0	0	0	0	0.8089	0	0.745900015	0	0	0
2.24	118.4606398	658.1861897	34.39939592	0.576240042101868	0	0.4214888154801292	0	-1.091267033756892	0	-2.055626261	21.03447231	-4.329477086	0.9963623058704152	0	0.539757718625939	0	-0.3422556026840509	0
